<?xml version="1.0" encoding="UTF-8" standalone="no"?>
<!-- Created with Inkscape (http://www.inkscape.org/) -->

<svg
   version="1.1"
   id="svg1"
   width="480"
   height="480"
   viewBox="0 0 480 480"
   xmlns="http://www.w3.org/2000/svg"
   xmlns:svg="http://www.w3.org/2000/svg">
  <defs
     id="defs1" />
  <g
     id="g1">
    <path
       style="fill:#000000;fill-opacity:1;stroke:none;stroke-width:1.12153;stroke-linecap:round;stroke-linejoin:miter;stroke-dasharray:none;stroke-opacity:1;paint-order:normal"
       d="M 286.53737,165.88281 C 244.84094,227.63919 141.65251,368.00974 76.127406,366.52723 -39.009458,346.46469 26.948135,170.01245 62.24614,250.77261 c 71.44467,-158.940634 104.43773,-1.4794 20.184116,105.7151 -8.655358,9.8924 -10.275059,7.83498 -7.709697,-0.67511 4.39381,-11.69859 8.980782,-22.62217 14.481166,-32.97474 25.676545,-48.32715 32.390725,-90.45155 29.686775,-109.72831 -2.89587,-20.64498 -16.99835,-14.96701 -40.236856,36.89385 -8.91877,19.90383 -15.281059,36.44662 -28.161517,5.52886 -13.27481,-31.86438 -32.444802,9.06508 -24.282953,50.31879 9.711768,43.86657 46.668683,49.59848 50.63625,48.18748 61.791566,1.67529 147.290436,-115.83832 207.143706,-190.68768 27.30305,-34.14378 10.52174,-9.27458 2.55024,2.53196 z"
       id="path1" />
    <path
       style="opacity:1;fill:#000000;fill-opacity:1;stroke:none;stroke-width:1.12153;stroke-linecap:round;stroke-linejoin:miter;stroke-dasharray:none;stroke-opacity:1;paint-order:normal"
       d="m 168.4587,386.12589 c -2.05281,-47.41114 -2.79565,-99.63897 3.16774,-156.8232 4.06077,-38.93952 13.54944,-92.8086 25.09667,-136.844161 25.86335,-98.6303555 49.72038,-88.5581281 53.89659,-48.383131 4.32962,41.650738 -4.47594,102.669072 -3.49488,171.048672 2.0869,145.45889 54.26463,270.66281 107.97412,213.82419 48.52062,-51.34746 55.49661,-151.41395 106.20402,-282.03621 10.88121,-28.02998 10.32397,-26.38106 1.58656,1.11929 -51.97051,163.57365 -54.52911,239.97611 -103.81456,289.00275 -51.97405,51.70109 -114.63148,-29.81182 -120.2004,-210.15367 -1.18968,-38.52627 -0.25173,-82.07835 2.12967,-130.460448 8.34072,-169.453882 -47.00982,10.766148 -59.97473,138.069788 -5.44343,53.44958 -7.48258,82.77183 -6.28407,151.81104 0.78454,45.19312 -1.94722,100.04958 -6.28673,-0.17491 z"
       id="path2" />
    <path
       style="opacity:1;fill:#000000;fill-opacity:1;stroke:none;stroke-width:1.12153;stroke-linecap:round;stroke-linejoin:miter;stroke-dasharray:none;stroke-opacity:1;paint-order:normal"
       d="m 308.73912,131.09603 c -1.28462,82.24041 15.93493,147.57206 13.29839,96.73148 -2.56162,-49.39574 -3.50374,-45.21085 -4.11865,-124.5707 0,-142.596712 -10.67025,-60.802022 -9.17974,27.83922 z"
       id="path3" />
    <path
       style="opacity:1;fill:#000000;fill-opacity:1;stroke:none;stroke-width:1.12153;stroke-linecap:round;stroke-linejoin:miter;stroke-dasharray:none;stroke-opacity:1;paint-order:normal"
       d="m 332.80121,155.02406 c 24.42489,1.81464 40.22026,-25.85138 46.71513,-46.44075 11.30085,-35.82483 -23.61429,-38.340374 -41.02694,9.04165 -5.39985,14.69367 -11.67121,36.81261 -4.88724,56.20276 8.25741,23.60158 37.57189,7.97193 56.39137,-28.59827 8.29544,-16.11975 11.44799,-26.77434 -4.83138,-4.45285 -5.55163,7.61215 -11.47013,15.29702 -17.36823,21.82731 -6.87811,7.61533 -13.42875,14.17806 -22.10321,11.91216 -8.56574,-2.2375 -10.37198,-22.71871 0.90124,-52.281 12.73756,-33.402242 34.34404,-42.492268 22.67937,-12.64431 -4.6201,11.82205 -17.46141,40.05881 -36.47011,45.4333 z"
       id="path4" />
    <path
       style="opacity:1;fill:#000000;fill-opacity:1;stroke:none;stroke-width:1.12153;stroke-linecap:round;stroke-linejoin:miter;stroke-dasharray:none;stroke-opacity:1;paint-order:normal"
       d="m 420.76593,71.937712 c -53.2771,-59.205719 -32.56972,-14.996694 -4.41987,8.669756 -11.64947,24.089722 -22.26259,106.001612 7.81978,6.799795 61.95766,40.799627 39.19194,15.824777 4.24988,-8.499754 15.80486,-31.616631 46.08844,-98.112872 -7.64979,-6.969797 z"
       id="path5" />
    <path
       style="opacity:1;fill:#000000;fill-opacity:1;stroke:none;stroke-width:1.12153;stroke-linecap:round;stroke-linejoin:miter;stroke-dasharray:none;stroke-opacity:1;paint-order:normal"
       d="m 401.01868,186.27934 c -23.67344,-14.55138 -18.01699,7.0442 -5.92201,30.49424 24.28815,-44.7684 16.75105,-15.56789 4.07988,7.98977 22.41006,43.44703 10.8093,34.44704 -4.49347,7.08395 -16.16049,24.15143 -19.8171,21.36217 -5.61262,-8.49435 -4.82839,-2.15056 -31.12548,-52.87557 1.4999,-51.75969 15.93337,0.54496 24.31443,23.20918 10.44832,14.68608 z"
       id="path8" />
    <path
       style="opacity:1;fill:#000000;fill-opacity:1;stroke:none;stroke-width:1.12153;stroke-linecap:round;stroke-linejoin:miter;stroke-dasharray:none;stroke-opacity:1;paint-order:normal"
       d="m 277.74746,289.77354 -1.9508,4.75616 c -4.81414,6.87089 -12.17825,2.88796 -6.22478,-8.16962 18.90134,-35.10611 109.31052,-40.47887 66.66617,120.89625 -6.87436,26.01399 -7.52147,28.86916 -20.62082,4.12229 -19.33412,-36.95015 -30.35183,-77.38809 -43.3992,-116.79687 l 4.80819,-7.69311 43.65315,113.47836 c 0,0 3.60465,9.8879 4.36604,7.62523 5.31425,-15.79258 9.97939,-45.31675 11.20497,-68.24581 2.4552,-45.93326 -13.90978,-84.25524 -58.50292,-49.97287 z"
       id="path9" />
    <path
       style="opacity:1;fill:#000000;fill-opacity:1;stroke:none;stroke-width:1.12153;stroke-linecap:round;stroke-linejoin:round;stroke-dasharray:none;stroke-opacity:1;paint-order:normal"
       d="m 380.41277,298.4778 c 5.91726,-17.98658 -9.15057,-41.174 -20.69093,-38.30475 0.15036,-0.85982 -1.10694,-2.68936 -1.31732,-3.97987 -0.25376,-1.55666 -1.09359,-3.14394 0.13473,-3.80419 23.00076,-12.3633 53.63692,52.01342 14.0537,65.36104 -28.72445,5.24493 -31.91802,-47.89389 -19.11949,-62.09089 3.38943,-3.75977 11.21583,-5.68988 9.72625,-3.84447 -0.54787,2.58973 0.45232,6.3338 -3.513,8.36522 -5.3624,1.36605 -6.73962,17.35881 -4.74141,28.37881 5.98555,33.00985 22.32944,19.45777 25.46747,9.9191 z"
       id="path23" />
  </g>
</svg>
